<svg width="26" height="60" viewBox="0 0 26 60" fill="none" xmlns="http://www.w3.org/2000/svg">
<path d="M25.625 54.6462V59.1462H23.625C18.4375 59.1462 14.9583 58.3754 13.1875 56.8337C11.4375 55.2921 10.5625 52.2192 10.5625 47.615V40.1462C10.5625 37.0004 10 34.8233 8.875 33.615C7.77083 32.4067 5.76042 31.8025 2.84375 31.8025H0.90625V27.3337H2.84375C5.78125 27.3337 7.80208 26.74 8.90625 25.5525C10.0104 24.365 10.5625 22.2087 10.5625 19.0837V11.5837C10.5625 6.97957 11.4375 3.91707 13.1875 2.39624C14.9583 0.854574 18.4375 0.0837402 23.625 0.0837402H25.625V4.55249H23.4375C20.5208 4.55249 18.6146 5.01082 17.7188 5.92749C16.8438 6.82332 16.4062 8.75041 16.4062 11.7087V19.4587C16.4062 22.7296 15.9271 25.1046 14.9688 26.5837C14.0312 28.0629 12.4167 29.0629 10.125 29.5837C12.4375 30.1462 14.0625 31.1671 15 32.6462C15.9375 34.1254 16.4062 36.49 16.4062 39.74V47.49C16.4062 50.4692 16.8438 52.4067 17.7188 53.3025C18.6146 54.1983 20.5208 54.6462 23.4375 54.6462H25.625Z" fill="#8091A0"/>
</svg>
