<svg width="26" height="60" viewBox="0 0 26 60" fill="none" xmlns="http://www.w3.org/2000/svg">
<path d="M0.375 54.6462V59.1462H2.375C7.5625 59.1462 11.0417 58.3754 12.8125 56.8337C14.5625 55.2921 15.4375 52.2192 15.4375 47.615V40.1462C15.4375 37.0004 16 34.8233 17.125 33.615C18.2292 32.4067 20.2396 31.8025 23.1562 31.8025H25.0938V27.3337H23.1562C20.2188 27.3337 18.1979 26.74 17.0938 25.5525C15.9896 24.365 15.4375 22.2087 15.4375 19.0837V11.5837C15.4375 6.97957 14.5625 3.91707 12.8125 2.39624C11.0417 0.854574 7.5625 0.0837402 2.375 0.0837402H0.375V4.55249H2.5625C5.47917 4.55249 7.38542 5.01082 8.28125 5.92749C9.15625 6.82332 9.59375 8.75041 9.59375 11.7087V19.4587C9.59375 22.7296 10.0729 25.1046 11.0312 26.5837C11.9688 28.0629 13.5833 29.0629 15.875 29.5837C13.5625 30.1462 11.9375 31.1671 11 32.6462C10.0625 34.1254 9.59375 36.49 9.59375 39.74V47.49C9.59375 50.4692 9.15625 52.4067 8.28125 53.3025C7.38542 54.1983 5.47917 54.6462 2.5625 54.6462H0.375Z" fill="#9EFFFF"/>
</svg>
